<svg width="180" height="44" viewBox="0 0 180 44" fill="none" xmlns="http://www.w3.org/2000/svg">
<g clip-path="url(#clip0_359_474)">
<path d="M72.1101 28.61H76.5701V40.99H79.6101V28.61H84.0601V26H72.1101V28.61Z" fill="#1F2933"/>
<path d="M87.4401 28.5001C87.8901 28.5001 88.2701 28.3501 88.5901 28.0401C88.9101 27.7301 89.0701 27.3601 89.0701 26.9201C89.0701 26.4801 88.9101 26.1201 88.5901 25.8101C88.2701 25.5001 87.8801 25.3501 87.4401 25.3501C87.0001 25.3501 86.6101 25.5001 86.2901 25.8101C85.9701 26.1201 85.8101 26.4901 85.8101 26.9201C85.8101 27.3501 85.9701 27.7301 86.2901 28.0401C86.6101 28.3501 86.9901 28.5001 87.4401 28.5001Z" fill="#1F2933"/>
<path d="M88.9502 29.75H85.9202V40.99H88.9502V29.75Z" fill="#1F2933"/>
<path d="M103.61 29.6001C102.81 29.6001 102.12 29.7901 101.53 30.1801C100.94 30.5701 100.54 31.0801 100.32 31.7301H100.21C100.04 31.0801 99.6802 30.5601 99.1602 30.1701C98.6402 29.7801 98.0002 29.6001 97.2502 29.6001C96.5002 29.6001 95.8802 29.7901 95.3502 30.1701C94.8202 30.5501 94.4402 31.0701 94.2102 31.7301H94.0802V29.7501H91.2002V40.9901H94.2302V34.2401C94.2302 33.8201 94.3102 33.4601 94.4602 33.1501C94.6102 32.8401 94.8302 32.6001 95.0902 32.4301C95.3502 32.2601 95.6602 32.1701 96.0002 32.1701C96.5002 32.1701 96.9002 32.3301 97.2002 32.6601C97.5102 32.9901 97.6602 33.4301 97.6602 33.9801V40.9901H100.59V34.1301C100.59 33.5401 100.74 33.0701 101.05 32.7101C101.36 32.3501 101.79 32.1701 102.34 32.1701C102.82 32.1701 103.23 32.3301 103.55 32.6401C103.87 32.9501 104.03 33.4201 104.03 34.0401V40.9801H107.05V33.4201C107.05 32.2001 106.73 31.2601 106.09 30.5901C105.45 29.9201 104.63 29.5901 103.61 29.5901V29.6001Z" fill="#1F2933"/>
<path d="M117.74 31.0201C117.27 30.5501 116.73 30.1901 116.11 29.9601C115.49 29.7201 114.82 29.6001 114.1 29.6001C113.03 29.6001 112.1 29.8401 111.31 30.3301C110.52 30.8201 109.9 31.5001 109.47 32.3701C109.03 33.2401 108.82 34.2601 108.82 35.4101C108.82 36.5601 109.04 37.6201 109.47 38.4901C109.91 39.3601 110.53 40.0201 111.33 40.4901C112.14 40.9601 113.1 41.2001 114.22 41.2001C115.12 41.2001 115.91 41.0601 116.6 40.7701C117.29 40.4801 117.85 40.0801 118.29 39.5701C118.73 39.0601 119.02 38.4501 119.16 37.7601L116.36 37.5701C116.26 37.8501 116.1 38.0901 115.9 38.2901C115.7 38.4901 115.46 38.6301 115.18 38.7301C114.9 38.8301 114.59 38.8801 114.26 38.8801C113.75 38.8801 113.32 38.7701 112.95 38.5501C112.58 38.3301 112.29 38.0201 112.09 37.6101C111.89 37.2101 111.79 36.7201 111.79 36.1701H119.22V35.3101C119.22 34.3501 119.09 33.5201 118.83 32.8001C118.57 32.0901 118.21 31.4901 117.74 31.0201ZM111.8 34.2301C111.82 33.8301 111.91 33.4601 112.09 33.1201C112.29 32.7601 112.56 32.4701 112.92 32.2501C113.27 32.0301 113.68 31.9201 114.14 31.9201C114.6 31.9201 114.97 32.0201 115.3 32.2201C115.63 32.4201 115.89 32.6901 116.08 33.0401C116.27 33.3901 116.36 33.7801 116.36 34.2301H111.79H111.8Z" fill="#1F2933"/>
<path d="M124.36 37.6799C123.89 37.6799 123.48 37.8499 123.15 38.1899C122.82 38.5299 122.65 38.9399 122.66 39.4199C122.66 39.8999 122.82 40.3199 123.15 40.6599C123.48 40.9999 123.89 41.1799 124.36 41.1799C124.66 41.1799 124.94 41.0999 125.2 40.9399C125.46 40.7799 125.66 40.5699 125.82 40.2999C125.98 40.0299 126.06 39.7399 126.07 39.4199C126.07 38.9399 125.89 38.5299 125.55 38.1899C125.21 37.8499 124.81 37.6799 124.36 37.6799Z" fill="#1F2933"/>
<path d="M128.92 27.66C128.51 27.05 127.94 26.59 127.21 26.27C126.49 25.95 125.65 25.79 124.71 25.79C123.85 25.79 123.07 25.95 122.36 26.26C121.65 26.57 121.08 27.05 120.65 27.69C120.22 28.33 119.99 29.13 119.97 30.11H122.87C122.88 29.71 122.98 29.38 123.15 29.1C123.33 28.83 123.55 28.62 123.82 28.49C124.09 28.35 124.39 28.28 124.69 28.28C124.99 28.28 125.3 28.35 125.56 28.48C125.82 28.62 126.03 28.81 126.19 29.07C126.35 29.33 126.42 29.62 126.42 29.96C126.42 30.28 126.35 30.56 126.21 30.82C126.07 31.08 125.89 31.31 125.66 31.52C125.43 31.73 125.16 31.93 124.87 32.13C124.48 32.38 124.14 32.67 123.86 32.98C123.58 33.29 123.37 33.7 123.22 34.21C123.08 34.72 123 35.4 123 36.25V36.5H125.69V36.25C125.69 35.77 125.75 35.37 125.87 35.04C125.99 34.71 126.16 34.43 126.4 34.18C126.64 33.93 126.95 33.69 127.32 33.46C127.77 33.19 128.15 32.88 128.48 32.54C128.81 32.2 129.06 31.81 129.24 31.37C129.42 30.93 129.51 30.42 129.51 29.85C129.51 29 129.3 28.27 128.89 27.66H128.92Z" fill="#1F2933"/>
<path d="M56.62 12.8H62.84V10.19H56.62V6.61H63.34V4H53.54V19H63.37V16.39H56.62V12.8Z" fill="#1F2933"/>
<path d="M75.5201 7.75H72.4201L70.3601 11.68L68.3601 7.75H65.2401L68.3601 13.38L65.1201 19H68.2501L70.3601 15.11L72.5201 19H75.6101L72.3601 13.38L75.5201 7.75Z" fill="#1F2933"/>
<path d="M84.7599 8.5001C84.3299 8.1901 83.8299 7.9701 83.2799 7.8201C82.7199 7.6701 82.1399 7.6001 81.5399 7.6001C80.6699 7.6001 79.8999 7.7401 79.2399 8.0101C78.5799 8.2801 78.0399 8.6701 77.6199 9.1701C77.1999 9.6701 76.9199 10.2601 76.7799 10.9501L79.5799 11.1801C79.6799 10.8101 79.8999 10.5001 80.2199 10.2501C80.5399 10.0001 80.9799 9.8801 81.5199 9.8801C82.0599 9.8801 82.4399 10.0101 82.7199 10.2601C82.9999 10.5101 83.1399 10.8701 83.1399 11.3401V11.3801C83.1399 11.6201 83.0499 11.8001 82.8799 11.9201C82.7099 12.0401 82.4199 12.1301 82.0399 12.1901C81.6499 12.2501 81.1399 12.3201 80.5099 12.3801C79.9699 12.4301 79.4599 12.5301 78.9699 12.6601C78.4799 12.7901 78.0399 12.9901 77.6599 13.2501C77.2799 13.5101 76.9699 13.8501 76.7499 14.2801C76.5299 14.7001 76.4199 15.2301 76.4199 15.8601C76.4199 16.6001 76.5799 17.2201 76.8899 17.7201C77.2099 18.2201 77.6399 18.5901 78.1799 18.8401C78.7199 19.0901 79.3499 19.2201 80.0399 19.2201C80.5799 19.2201 81.0599 19.1501 81.4699 19.0001C81.8799 18.8501 82.2299 18.6401 82.5299 18.3801C82.8199 18.1101 83.0599 17.8001 83.2299 17.4501H83.3199V19.0101H86.1899V11.4201C86.1899 10.7501 86.0599 10.1801 85.8099 9.6901C85.5599 9.2101 85.2199 8.8101 84.7799 8.5101L84.7599 8.5001ZM83.1599 14.9701C83.1599 15.3701 83.0599 15.7201 82.8699 16.0301C82.6799 16.3401 82.4099 16.5901 82.0699 16.7701C81.7299 16.9501 81.3399 17.0401 80.8899 17.0401C80.4399 17.0401 80.0399 16.9301 79.7399 16.7101C79.4399 16.4901 79.2899 16.1601 79.2899 15.7401C79.2899 15.4501 79.3599 15.2001 79.5099 15.0001C79.6599 14.8001 79.8599 14.6501 80.1299 14.5301C80.3899 14.4101 80.7099 14.3301 81.0599 14.2701C81.2299 14.2401 81.4099 14.2201 81.6099 14.1901C81.8099 14.1601 82.0199 14.1201 82.2199 14.0801C82.4199 14.0401 82.6099 13.9901 82.7699 13.9401C82.9299 13.8901 83.0599 13.8301 83.1599 13.7701V14.9601V14.9701Z" fill="#1F2933"/>
<path d="M92.0899 10.4301C92.4399 10.1701 92.8499 10.0401 93.3199 10.0401C93.8699 10.0401 94.3199 10.2101 94.6699 10.5601C95.0099 10.9001 95.2299 11.3601 95.3099 11.9201H98.1699C98.1299 11.0501 97.8999 10.2901 97.4799 9.65012C97.0599 9.01012 96.4999 8.50012 95.7799 8.15012C95.0599 7.80012 94.2299 7.62012 93.2799 7.62012C92.1799 7.62012 91.2299 7.87012 90.4199 8.36012C89.6199 8.85012 88.9999 9.53012 88.5699 10.4001C88.1399 11.2701 87.9199 12.2801 87.9199 13.4401C87.9199 14.6001 88.1299 15.5801 88.5599 16.4601C88.9899 17.3301 89.5999 18.0201 90.4099 18.5101C91.2099 19.0001 92.1699 19.2501 93.2899 19.2501C94.2599 19.2501 95.0999 19.0701 95.8099 18.7001C96.5199 18.3301 97.0799 17.8201 97.4799 17.1701C97.8899 16.5201 98.1099 15.7601 98.1599 14.9001H95.2999C95.2399 15.3001 95.1199 15.6301 94.9399 15.9201C94.7599 16.2001 94.5299 16.4101 94.2499 16.5601C93.9699 16.7101 93.6599 16.7801 93.3199 16.7801C92.8499 16.7801 92.4399 16.6501 92.0899 16.3901C91.7399 16.1301 91.4699 15.7401 91.2799 15.2401C91.0899 14.7401 90.9899 14.1301 90.9899 13.4101C90.9899 12.6901 91.0899 12.1001 91.2799 11.6001C91.4699 11.1001 91.7399 10.7201 92.0899 10.4601V10.4301Z" fill="#1F2933"/>
<path d="M105.37 16.6001C105.23 16.6301 105.09 16.6401 104.94 16.6401C104.74 16.6401 104.56 16.6101 104.4 16.5501C104.25 16.4901 104.13 16.3701 104.04 16.2201C103.96 16.0601 103.91 15.8401 103.91 15.5501V10.1001H105.96V7.76006H103.91V5.06006H100.88V7.76006H99.3901V10.1001H100.88V15.9601C100.88 16.7001 101.02 17.3101 101.33 17.7901C101.63 18.2701 102.06 18.6301 102.61 18.8601C103.16 19.0901 103.79 19.1901 104.52 19.1601C104.91 19.1401 105.25 19.1001 105.52 19.0401C105.79 18.9701 106.01 18.9201 106.16 18.8701L105.68 16.5501C105.6 16.5701 105.49 16.5901 105.35 16.6101L105.37 16.6001Z" fill="#1F2933"/>
<path d="M111 4H107.97V19H111V4Z" fill="#1F2933"/>
<path d="M118.3 16.01H118.19L115.93 7.74999H112.75L116.66 19.32L116.48 19.8C116.35 20.15 116.18 20.4 115.96 20.55C115.75 20.7 115.5 20.76 115.21 20.75C114.92 20.74 114.6 20.68 114.25 20.57L113.57 22.9C113.79 22.99 114.06 23.07 114.4 23.13C114.73 23.19 115.09 23.22 115.48 23.22C116.23 23.22 116.87 23.1 117.4 22.85C117.93 22.6 118.37 22.25 118.72 21.8C119.07 21.35 119.34 20.82 119.55 20.21L123.79 7.73999H120.59L118.31 16L118.3 16.01Z" fill="#1F2933"/>
<path d="M142.06 14.44H141.93L139.28 4H136.4L133.75 14.42H133.63L131.22 4H127.86L132.02 19H135.02L137.78 9.19H137.89L140.66 19H143.66L147.82 4H144.46L142.06 14.44Z" fill="#1F2933"/>
<path d="M157.89 8.11C157.32 7.77 156.66 7.6 155.9 7.6C155.07 7.6 154.38 7.79 153.83 8.17C153.28 8.55 152.88 9.07 152.64 9.73H152.51V4H149.57V19H152.6V12.5C152.6 12.02 152.7 11.6 152.87 11.26C153.05 10.92 153.29 10.65 153.61 10.47C153.92 10.29 154.29 10.2 154.7 10.2C155.32 10.2 155.79 10.39 156.14 10.78C156.48 11.17 156.65 11.71 156.65 12.4V19.01H159.68V11.85C159.68 10.97 159.53 10.22 159.22 9.58C158.9 8.95 158.46 8.46 157.9 8.12L157.89 8.11Z" fill="#1F2933"/>
<path d="M169.78 8.5001C169.35 8.1901 168.85 7.9701 168.3 7.8201C167.74 7.6701 167.16 7.6001 166.56 7.6001C165.69 7.6001 164.92 7.7401 164.26 8.0101C163.6 8.2801 163.06 8.6701 162.64 9.1701C162.22 9.6701 161.94 10.2601 161.8 10.9501L164.6 11.1801C164.7 10.8101 164.92 10.5001 165.24 10.2501C165.56 10.0001 166 9.8801 166.54 9.8801C167.08 9.8801 167.46 10.0101 167.74 10.2601C168.02 10.5101 168.16 10.8701 168.16 11.3401V11.3801C168.16 11.6201 168.07 11.8001 167.9 11.9201C167.73 12.0401 167.44 12.1301 167.06 12.1901C166.67 12.2501 166.16 12.3201 165.53 12.3801C164.99 12.4301 164.48 12.5301 163.99 12.6601C163.5 12.7901 163.06 12.9901 162.68 13.2501C162.3 13.5101 161.99 13.8501 161.77 14.2801C161.55 14.7001 161.44 15.2301 161.44 15.8601C161.44 16.6001 161.6 17.2201 161.91 17.7201C162.23 18.2201 162.66 18.5901 163.2 18.8401C163.74 19.0901 164.37 19.2201 165.06 19.2201C165.6 19.2201 166.08 19.1501 166.49 19.0001C166.9 18.8501 167.25 18.6401 167.55 18.3801C167.84 18.1101 168.08 17.8001 168.25 17.4501H168.34V19.0101H171.21V11.4201C171.21 10.7501 171.08 10.1801 170.83 9.6901C170.58 9.2101 170.24 8.8101 169.8 8.5101L169.78 8.5001ZM168.18 14.9701C168.18 15.3701 168.08 15.7201 167.89 16.0301C167.7 16.3401 167.43 16.5901 167.09 16.7701C166.75 16.9501 166.36 17.0401 165.91 17.0401C165.46 17.0401 165.06 16.9301 164.76 16.7101C164.46 16.4901 164.31 16.1601 164.31 15.7401C164.31 15.4501 164.38 15.2001 164.53 15.0001C164.68 14.8001 164.88 14.6501 165.15 14.5301C165.41 14.4101 165.73 14.3301 166.08 14.2701C166.25 14.2401 166.43 14.2201 166.63 14.1901C166.83 14.1601 167.04 14.1201 167.24 14.0801C167.44 14.0401 167.63 13.9901 167.79 13.9401C167.95 13.8901 168.08 13.8301 168.18 13.7701V14.9601V14.9701Z" fill="#1F2933"/>
<path d="M178.65 16.6001C178.51 16.6301 178.37 16.6401 178.22 16.6401C178.02 16.6401 177.84 16.6101 177.68 16.5501C177.53 16.4901 177.41 16.3701 177.32 16.2201C177.24 16.0601 177.19 15.8401 177.19 15.5501V10.1001H179.24V7.76006H177.19V5.06006H174.16V7.76006H172.67V10.1001H174.16V15.9601C174.16 16.7001 174.3 17.3101 174.61 17.7901C174.91 18.2701 175.34 18.6301 175.89 18.8601C176.44 19.0901 177.07 19.1901 177.8 19.1601C178.19 19.1401 178.53 19.1001 178.8 19.0401C179.07 18.9701 179.29 18.9201 179.44 18.8701L178.96 16.5501C178.88 16.5701 178.77 16.5901 178.63 16.6101L178.65 16.6001Z" fill="#1F2933"/>
<path d="M56.62 26H53.54V40.99H56.62V26Z" fill="#1F2933"/>
<path d="M65.2701 34.4601L63.3001 34.0501C62.7901 33.9401 62.4401 33.7901 62.2301 33.6001C62.0201 33.4101 61.9201 33.1901 61.9201 32.9201C61.9201 32.5801 62.0801 32.3101 62.4001 32.1101C62.7201 31.9101 63.1201 31.8101 63.5901 31.8101C63.9401 31.8101 64.2401 31.8701 64.5001 31.9901C64.7501 32.1101 64.9601 32.2701 65.1101 32.4701C65.2601 32.6701 65.3701 32.8901 65.4201 33.1301L68.1901 32.9501C68.0601 31.9201 67.5901 31.1001 66.8001 30.5001C66.0101 29.9001 64.9201 29.6001 63.5401 29.6001C62.6101 29.6001 61.7901 29.7401 61.1001 30.0201C60.4101 30.3001 59.8701 30.7101 59.4901 31.2301C59.1101 31.7501 58.9201 32.3701 58.9201 33.1001C58.9201 33.9401 59.1801 34.6301 59.7001 35.1701C60.2201 35.7101 61.0101 36.0901 62.0801 36.3101L63.9701 36.7001C64.4401 36.8001 64.7901 36.9401 65.0201 37.1201C65.2501 37.3001 65.3601 37.5401 65.3701 37.8201C65.3701 38.1601 65.2001 38.4301 64.8801 38.6401C64.5601 38.8501 64.1301 38.9601 63.6001 38.9601C63.0701 38.9601 62.6201 38.8401 62.2701 38.6101C61.9201 38.3801 61.7101 38.0301 61.6201 37.5701L58.6401 37.7301C58.7901 38.8001 59.2901 39.6501 60.1401 40.2701C60.9901 40.8901 62.1401 41.2001 63.5901 41.2001C64.5401 41.2001 65.3701 41.0501 66.1001 40.7401C66.8301 40.4301 67.4001 40.0001 67.8201 39.4401C68.2401 38.8801 68.4501 38.2401 68.4501 37.5001C68.4501 36.6901 68.1901 36.0401 67.6701 35.5401C67.1501 35.0401 66.3601 34.6801 65.3001 34.4601H65.2701Z" fill="#1F2933"/>
<path d="M133.92 41.1802C133.45 41.1802 133.05 41.0102 132.72 40.6602C132.39 40.3202 132.22 39.9002 132.22 39.4202C132.22 38.9402 132.39 38.5302 132.72 38.1902C133.05 37.8502 133.45 37.6802 133.92 37.6802C134.39 37.6802 134.77 37.8502 135.11 38.1902C135.45 38.5302 135.62 38.9402 135.62 39.4202C135.62 39.7402 135.54 40.0402 135.38 40.3002C135.22 40.5602 135.01 40.7802 134.76 40.9402C134.5 41.1002 134.22 41.1802 133.91 41.1802H133.92Z" fill="#7CC4FA"/>
<path d="M142.3 41.2101C141.18 41.2101 140.22 40.9701 139.42 40.4701C138.62 39.9801 138 39.3001 137.57 38.4301C137.14 37.5601 136.93 36.5501 136.93 35.4101C136.93 34.2701 137.15 33.2501 137.58 32.3801C138.01 31.5101 138.63 30.8301 139.43 30.3401C140.23 29.8501 141.18 29.6001 142.29 29.6001C143.24 29.6001 144.08 29.7801 144.79 30.1301C145.5 30.4801 146.07 30.9901 146.49 31.6301C146.91 32.2701 147.14 33.0301 147.18 33.9001H144.32C144.24 33.3401 144.03 32.8901 143.68 32.5401C143.34 32.2001 142.89 32.0201 142.33 32.0201C141.86 32.0201 141.45 32.1501 141.1 32.4101C140.75 32.6701 140.48 33.0501 140.29 33.5501C140.1 34.0501 140 34.6501 140 35.3601C140 36.0701 140.1 36.6901 140.29 37.1901C140.48 37.6901 140.75 38.0801 141.1 38.3401C141.45 38.6001 141.86 38.7301 142.33 38.7301C142.68 38.7301 142.99 38.6601 143.26 38.5101C143.54 38.3601 143.77 38.1501 143.95 37.8701C144.13 37.5901 144.25 37.2501 144.31 36.8601H147.17C147.12 37.7201 146.9 38.4701 146.49 39.1201C146.09 39.7701 145.53 40.2801 144.82 40.6501C144.11 41.0201 143.27 41.2001 142.3 41.2001V41.2101Z" fill="#7CC4FA"/>
<path d="M154.16 41.2101C153.06 41.2101 152.1 40.9701 151.3 40.4801C150.5 39.9901 149.88 39.3201 149.44 38.4501C149 37.5801 148.79 36.5701 148.79 35.4201C148.79 34.2701 149.01 33.2401 149.44 32.3701C149.88 31.5001 150.49 30.8201 151.3 30.3401C152.1 29.8601 153.06 29.6101 154.16 29.6101C155.26 29.6101 156.22 29.8501 157.02 30.3401C157.82 30.8301 158.44 31.5001 158.88 32.3701C159.32 33.2401 159.53 34.2601 159.53 35.4201C159.53 36.5801 159.31 37.5801 158.88 38.4501C158.44 39.3201 157.83 40.0001 157.02 40.4801C156.22 40.9601 155.26 41.2101 154.16 41.2101ZM154.17 38.8001C154.67 38.8001 155.09 38.6501 155.43 38.3601C155.77 38.0701 156.02 37.6601 156.19 37.1501C156.36 36.6401 156.45 36.0501 156.45 35.4001C156.45 34.7501 156.36 34.1601 156.19 33.6501C156.02 33.1401 155.76 32.7301 155.43 32.4401C155.09 32.1401 154.68 31.9901 154.17 31.9901C153.66 31.9901 153.24 32.1401 152.9 32.4401C152.56 32.7401 152.3 33.1401 152.13 33.6501C151.96 34.1601 151.87 34.7501 151.87 35.4001C151.87 36.0501 151.96 36.6401 152.13 37.1501C152.3 37.6601 152.56 38.0701 152.9 38.3601C153.24 38.6601 153.67 38.8001 154.17 38.8001Z" fill="#7CC4FA"/>
<path d="M161.28 40.9901V29.7501H164.16V31.7301H164.29C164.52 31.0701 164.9 30.5501 165.43 30.1701C165.96 29.7901 166.59 29.6001 167.33 29.6001C168.07 29.6001 168.71 29.7901 169.24 30.1701C169.77 30.5501 170.12 31.0701 170.29 31.7201H170.4C170.62 31.0801 171.03 30.5601 171.61 30.1701C172.19 29.7801 172.89 29.5901 173.69 29.5901C174.71 29.5901 175.54 29.9201 176.17 30.5901C176.81 31.2601 177.13 32.2001 177.13 33.4201V40.9801H174.11V34.0401C174.11 33.4201 173.95 32.9501 173.63 32.6401C173.31 32.3301 172.91 32.1701 172.42 32.1701C171.87 32.1701 171.44 32.3501 171.13 32.7101C170.82 33.0701 170.67 33.5401 170.67 34.1301V40.9901H167.74V33.9801C167.74 33.4301 167.59 32.9901 167.28 32.6601C166.98 32.3301 166.57 32.1701 166.08 32.1701C165.74 32.1701 165.44 32.2601 165.17 32.4301C164.9 32.6001 164.69 32.8401 164.54 33.1501C164.38 33.4601 164.31 33.8201 164.31 34.2401V40.9901H161.28Z" fill="#7CC4FA"/>
<g filter="url(#filter0_dd_359_474)">
<path d="M22.54 3C33.02 3 41.54 11.52 41.54 22C41.54 32.48 33.02 41 22.54 41C12.06 41 3.54004 32.48 3.54004 22C3.54004 11.52 12.07 3 22.54 3ZM22.54 0C10.39 0 0.540039 9.85 0.540039 22C0.540039 34.15 10.39 44 22.54 44C34.69 44 44.54 34.15 44.54 22C44.54 9.85 34.69 0 22.54 0Z" fill="#0B73DA"/>
<path d="M26.43 28.01L21.04 22.62V12H24.04V21.38L28.55 25.89L26.43 28.01Z" fill="#1F2933"/>
<path d="M38.54 20.5H35.54V23.5H38.54V20.5Z" fill="#7CC4FA"/>
<path d="M32.8017 9.62404L30.6804 11.7454L32.8017 13.8667L34.9231 11.7454L32.8017 9.62404Z" fill="#7CC4FA"/>
<path d="M24.04 6H21.04V9H24.04V6Z" fill="#7CC4FA"/>
<path d="M12.2888 9.62673L10.1675 11.748L12.2888 13.8694L14.4101 11.748L12.2888 9.62673Z" fill="#7CC4FA"/>
<path d="M9.54004 20.5H6.54004V23.5H9.54004V20.5Z" fill="#7CC4FA"/>
<path d="M12.2847 30.1326L10.1633 32.2539L12.2847 34.3752L14.406 32.2539L12.2847 30.1326Z" fill="#7CC4FA"/>
<path d="M24.04 35H21.04V38H24.04V35Z" fill="#7CC4FA"/>
<path d="M32.7973 30.1297L30.676 32.251L32.7973 34.3723L34.9187 32.251L32.7973 30.1297Z" fill="#7CC4FA"/>
</g>
</g>
<defs>
<filter id="filter0_dd_359_474" x="-3.45996" y="0" width="52" height="52" filterUnits="userSpaceOnUse" color-interpolation-filters="sRGB">
<feFlood flood-opacity="0" result="BackgroundImageFix"/>
<feColorMatrix in="SourceAlpha" type="matrix" values="0 0 0 0 0 0 0 0 0 0 0 0 0 0 0 0 0 0 127 0" result="hardAlpha"/>
<feOffset dy="4"/>
<feGaussianBlur stdDeviation="2"/>
<feComposite in2="hardAlpha" operator="out"/>
<feColorMatrix type="matrix" values="0 0 0 0 0 0 0 0 0 0 0 0 0 0 0 0 0 0 0.25 0"/>
<feBlend mode="normal" in2="BackgroundImageFix" result="effect1_dropShadow_359_474"/>
<feColorMatrix in="SourceAlpha" type="matrix" values="0 0 0 0 0 0 0 0 0 0 0 0 0 0 0 0 0 0 127 0" result="hardAlpha"/>
<feOffset dy="4"/>
<feGaussianBlur stdDeviation="2"/>
<feComposite in2="hardAlpha" operator="out"/>
<feColorMatrix type="matrix" values="0 0 0 0 0 0 0 0 0 0 0 0 0 0 0 0 0 0 0.25 0"/>
<feBlend mode="normal" in2="effect1_dropShadow_359_474" result="effect2_dropShadow_359_474"/>
<feBlend mode="normal" in="SourceGraphic" in2="effect2_dropShadow_359_474" result="shape"/>
</filter>
<clipPath id="clip0_359_474">
<rect width="180" height="44" fill="white"/>
</clipPath>
</defs>
</svg>
